# xmcd
#
# Track frame offsets: 
#        150
#        16561
#        31955
#        47798
#        64505
#        80770
#        97869
#        112780
#        129990
#        146355
#        158983
#        174145
#        192082
#
# Disc length: 2794 seconds
#
# Revision: 0
# Processed by: cddbd v1.5.2PL0 Copyright (c) Steve Scherf et al.
# Submitted via: ExactAudioCopy v1.0b1
#
DISCID=900ae80d
DTITLE=Corvus - The Comfort Of Home
DYEAR=2011
DGENRE=Metal
TTITLE0=Winter Ashes
TTITLE1=Valor And Vengeance
TTITLE2=Prince Charming
TTITLE3=Forever Sleep
TTITLE4=Divine By Design
TTITLE5=Revelation
TTITLE6=Positive Minus
TTITLE7=Dystopia
TTITLE8=Letters Left To Burn
TTITLE9=Siren Song
TTITLE10=Instigator
TTITLE11=The Comfort Of Home
TTITLE12=Funeral For The Fallen
EXTD=
EXTT0=
EXTT1=
EXTT2=
EXTT3=
EXTT4=
EXTT5=
EXTT6=
EXTT7=
EXTT8=
EXTT9=
EXTT10=
EXTT11=
EXTT12=
PLAYORDER=
